<svg width="22" height="22" viewBox="0 0 22 22" fill="none" xmlns="http://www.w3.org/2000/svg">
<path d="M3.46249 10.9472C2.59347 9.4319 2.17387 8.19457 1.92086 6.94032C1.54666 5.08532 2.403 3.27328 3.82161 2.11706C4.42117 1.62839 5.10847 1.79535 5.46301 2.43141L6.26342 3.86738C6.89786 5.00556 7.21507 5.57465 7.15215 6.178C7.08924 6.78135 6.66143 7.27275 5.80581 8.25555L3.46249 10.9472ZM3.46249 10.9472C5.22147 14.0143 7.98186 16.7762 11.0525 18.5372M11.0525 18.5372C12.5678 19.4062 13.8051 19.8259 15.0594 20.0789C16.9144 20.4531 18.7264 19.5967 19.8826 18.1781C20.3713 17.5786 20.2044 16.8913 19.5683 16.5367L18.1323 15.7363C16.9941 15.1018 16.4251 14.7847 15.8217 14.8476C15.2184 14.9105 14.7269 15.3383 13.7442 16.1939L11.0525 18.5372Z" stroke="white" stroke-width="1.5" stroke-linejoin="round"/>
</svg>
