<svg width="60" height="60" viewBox="0 0 60 60" fill="none" xmlns="http://www.w3.org/2000/svg">
<g clip-path="url(#clip0_54_830)">
<path d="M56.8 9.15C57.25 8.29996 57.5001 7.30004 57.5001 6.25004C57.5 2.80004 54.7 0 51.25 0C47.8 0 45 2.80004 45 6.25004C45 9.70004 47.8 12.5001 51.25 12.5001C52.3 12.5001 53.3001 12.25 54.15 11.8L56.8 14.4501C57.165 14.8176 57.645 15.0001 58.125 15.0001C58.605 15.0001 59.085 14.8176 59.45 14.4501C60.1825 13.7176 60.1825 12.5301 59.45 11.7976L56.8 9.15ZM48.75 6.25004C48.75 4.875 49.875 3.75 51.25 3.75C52.6251 3.75 53.7501 4.875 53.7501 6.25004C53.7501 7.62508 52.6251 8.75008 51.25 8.75008C49.875 8.74996 48.75 7.62496 48.75 6.25004ZM4.37504 15H35.625C38.025 15 40 13.025 40 10.625V4.37504C40 1.97504 38.025 0 35.625 0H4.37504C1.97504 0 0 1.97504 0 4.37504V10.6251C0 13.025 1.97504 15 4.37504 15ZM55.625 20H24.375C21.975 20 20 21.975 20 24.375V55.625C20 58.025 21.975 60 24.375 60H55.625C58.025 60 60 58.025 60 55.625V24.375C60 21.975 58.025 20 55.625 20ZM40 30C42.075 30 43.75 31.675 43.75 33.75C43.75 35.825 42.075 37.5 40 37.5C37.9251 37.5 36.25 35.825 36.25 33.75C36.25 31.675 37.925 30 40 30ZM47.5 45.625C47.5 46.65 46.65 47.5 45.625 47.5H34.375C33.3501 47.5 32.5 46.65 32.5 45.625V44.7C32.5 42.1 34.8501 40 37.75 40H42.25C45.15 40 47.5 42.1 47.5 44.7V45.625Z" fill="white"/>
<path d="M7.5 58.7501C11.6421 58.7501 15 55.3922 15 51.2501C15 47.1079 11.6421 43.7501 7.5 43.7501C3.35786 43.7501 0 47.1079 0 51.2501C0 55.3922 3.35786 58.7501 7.5 58.7501Z" fill="white"/>
<path d="M1.875 31.2499H13.125C14.16 31.2499 15 30.4099 15 29.3749C15 28.3399 14.16 27.4999 13.125 27.4999H1.875C0.84 27.4999 0 28.3399 0 29.3749C0 30.4099 0.84 31.2499 1.875 31.2499ZM1.875 38.7499H13.125C14.16 38.7499 15 37.9099 15 36.8749C15 35.8399 14.16 34.9999 13.125 34.9999H1.875C0.84 34.9999 0 35.8399 0 36.8749C0 37.9099 0.84 38.7499 1.875 38.7499ZM1.875 23.7499H13.125C14.16 23.7499 15 22.9099 15 21.8749C15 20.8399 14.16 19.9999 13.125 19.9999H1.875C0.84 19.9999 0 20.8399 0 21.8749C0 22.9099 0.84 23.7499 1.875 23.7499Z" fill="white"/>
</g>
<defs>
<clipPath id="clip0_54_830">
<rect width="60" height="60" fill="white"/>
</clipPath>
</defs>
</svg>
