<svg width="60" height="60" viewBox="0 0 60 60" fill="none" xmlns="http://www.w3.org/2000/svg">
<g clip-path="url(#clip0_54_838)">
<path d="M47.2955 17.971L54.983 7.72105C55.3189 7.27315 55.5235 6.74056 55.5737 6.18296C55.624 5.62536 55.518 5.06477 55.2677 4.56401C55.0173 4.06325 54.6324 3.6421 54.1561 3.34776C53.6799 3.05342 53.1311 2.89752 52.5712 2.89752H16.3948C16.3948 2.09797 16.0771 1.33117 15.5118 0.765799C14.9464 0.200432 14.1796 -0.117187 13.3801 -0.117188C12.5805 -0.117187 11.8137 0.200432 11.2483 0.765799C10.683 1.33117 10.3653 2.09797 10.3653 2.89752V54.1475H7.35064C6.55109 54.1475 5.78429 54.4651 5.21892 55.0305C4.65356 55.5959 4.33594 56.3627 4.33594 57.1622C4.33594 57.9618 4.65356 58.7286 5.21892 59.2939C5.78429 59.8593 6.55109 60.1769 7.35064 60.1769H19.4095C20.209 60.1769 20.9758 59.8593 21.5412 59.2939C22.1065 58.7286 22.4242 57.9618 22.4242 57.1622C22.4242 56.3627 22.1065 55.5959 21.5412 55.0305C20.9758 54.4651 20.209 54.1475 19.4095 54.1475H16.3948V33.0446H52.5712C53.1311 33.0446 53.6799 32.8887 54.1561 32.5943C54.6324 32.3 55.0173 31.8788 55.2677 31.3781C55.518 30.8773 55.624 30.3167 55.5737 29.7591C55.5235 29.2015 55.3189 28.6689 54.983 28.221L47.2955 17.971Z" fill="white"/>
</g>
<defs>
<clipPath id="clip0_54_838">
<rect width="60" height="60" fill="white"/>
</clipPath>
</defs>
</svg>
