<svg width="22" height="22" viewBox="0 0 22 22" fill="none" xmlns="http://www.w3.org/2000/svg">
<path d="M6.41699 7.79163L9.11384 9.38608C10.6861 10.3157 11.3146 10.3157 12.8868 9.38608L15.5837 7.79163" stroke="white" stroke-width="1.5" stroke-linecap="round" stroke-linejoin="round"/>
<path d="M1.84746 12.3526C1.90739 15.1626 1.93735 16.5677 2.97422 17.6085C4.01109 18.6493 5.45415 18.6856 8.34027 18.7581C10.119 18.8028 11.8803 18.8028 13.6591 18.7581C16.5452 18.6856 17.9883 18.6493 19.0251 17.6085C20.062 16.5677 20.092 15.1626 20.1519 12.3526C20.1712 11.449 20.1712 10.5508 20.1519 9.64731C20.092 6.83721 20.062 5.43217 19.0251 4.39136C17.9883 3.35055 16.5452 3.31429 13.6591 3.24178C11.8803 3.19708 10.119 3.19708 8.34026 3.24177C5.45415 3.31427 4.01109 3.35053 2.97422 4.39135C1.93735 5.43216 1.90738 6.8372 1.84746 9.64722C1.82819 10.5508 1.82819 11.449 1.84746 12.3526Z" stroke="white" stroke-width="1.5" stroke-linejoin="round"/>
</svg>
