<svg width="60" height="60" viewBox="0 0 60 60" fill="none" xmlns="http://www.w3.org/2000/svg">
<path d="M57.6393 22.5368C57.6496 22.7048 57.6346 22.8733 57.5948 23.0368L53.8939 37.8405C53.8032 38.203 53.5944 38.525 53.3004 38.7557C53.0065 38.9864 52.6441 39.1128 52.2704 39.1148L30.0648 39.2269H7.85047C7.47506 39.2269 7.11044 39.1013 6.81467 38.8701C6.51889 38.6389 6.30894 38.3154 6.21824 37.9511L2.51731 23.0913C2.47626 22.9235 2.46135 22.7503 2.47312 22.5779C1.04142 22.1268 0 20.7871 0 19.2082C0 17.2602 1.58467 15.6755 3.53271 15.6755C5.48075 15.6755 7.06542 17.2602 7.06542 19.2082C7.06542 20.3053 6.56277 21.2868 5.7757 21.9353L10.4093 26.6038C11.5803 27.7839 13.2054 28.4603 14.8679 28.4603C16.8336 28.4603 18.7079 27.5268 19.8881 25.9628L27.5031 15.8729C27.1745 15.5456 26.9138 15.1565 26.736 14.7281C26.5583 14.2996 26.467 13.8403 26.4673 13.3765C26.4673 11.4284 28.052 9.84375 30 9.84375C31.948 9.84375 33.5327 11.4284 33.5327 13.3765C33.5327 14.3212 33.1577 15.1787 32.5514 15.8132C32.5534 15.8159 32.5559 15.8182 32.5579 15.8211L40.1177 25.9388C41.2975 27.5178 43.1785 28.4606 45.1498 28.4606C46.8276 28.4606 48.4053 27.8072 49.5916 26.6206L54.2544 21.9579C53.4507 21.3097 52.9346 20.3187 52.9346 19.2082C52.9346 17.2602 54.5192 15.6755 56.4673 15.6755C58.4153 15.6755 60 17.2602 60 19.2082C60 20.7449 59.012 22.0519 57.6393 22.5368ZM53.5328 44.498C53.5328 44.0518 53.3555 43.6239 53.0401 43.3084C52.7246 42.993 52.2967 42.8157 51.8505 42.8157H8.33652C7.89036 42.8157 7.46248 42.993 7.147 43.3084C6.83152 43.6239 6.65428 44.0518 6.65428 44.498V48.5353C6.65428 48.9815 6.83152 49.4094 7.147 49.7249C7.46248 50.0403 7.89036 50.2176 8.33652 50.2176H51.8505C52.2967 50.2176 52.7246 50.0403 53.0401 49.7249C53.3555 49.4094 53.5328 48.9815 53.5328 48.5353V44.498Z" fill="white"/>
</svg>
