<svg width="22" height="22" viewBox="0 0 22 22" fill="none" xmlns="http://www.w3.org/2000/svg">
<path d="M10.9997 20.1667C16.0623 20.1667 20.1663 16.0627 20.1663 11C20.1663 5.93743 16.0623 1.83337 10.9997 1.83337C5.93706 1.83337 1.83301 5.93743 1.83301 11C1.83301 16.0627 5.93706 20.1667 10.9997 20.1667Z" stroke="white" stroke-width="1.5"/>
<path d="M6.875 15.5833C9.01239 13.3446 12.9646 13.2392 15.125 15.5833M13.2872 8.70829C13.2872 9.97393 12.2597 11 10.9922 11C9.72483 11 8.69731 9.97393 8.69731 8.70829C8.69731 7.44264 9.72483 6.41663 10.9922 6.41663C12.2597 6.41663 13.2872 7.44264 13.2872 8.70829Z" stroke="white" stroke-width="1.5" stroke-linecap="round"/>
</svg>
